<svg width="169" height="50" viewBox="0 0 169 50" fill="none" xmlns="http://www.w3.org/2000/svg">
<g clip-path="url(#clip0_3009_5720)">
<path d="M87.5707 48.6853H85.8068L84.4362 45.2194L83.2734 41.7423L82.1499 45.2531L80.8074 48.6853H79.0435L74.9766 37.6416H77.3078L79.903 45.5958L82.5824 37.6416H83.925L86.6775 45.5958L89.2053 37.6416H91.5365L87.5707 48.6853Z" fill="#FF0000"/>
<path d="M93.0028 45.5065C93.1264 46.4671 93.9634 47.1581 95.3171 47.1581C96.074 47.1707 96.8106 46.9138 97.3956 46.4334L98.6201 47.6468C97.714 48.4844 96.517 48.9358 95.2834 48.905C92.6096 48.905 91.0199 47.2535 91.0199 44.7651C90.9944 44.2196 91.0841 43.675 91.2831 43.1666C91.4821 42.6581 91.786 42.1973 92.175 41.8142C92.564 41.431 93.0293 41.1341 93.5407 40.9428C94.0521 40.7514 94.598 40.67 95.143 40.7037C97.7382 40.7037 99.3616 42.3103 99.0751 45.5065H93.0028ZM97.2214 43.9168C97.0978 42.9113 96.3058 42.4058 95.2048 42.4058C94.7244 42.3681 94.2458 42.4981 93.8505 42.7736C93.4552 43.0491 93.1675 43.4531 93.0365 43.9168H97.2214Z" fill="#FF0000"/>
<path d="M102.457 37.6816V41.9789C102.912 41.1756 104.187 40.7375 105.007 40.7375C107.254 40.7375 108.939 42.1193 108.939 44.7988C108.939 47.3491 107.226 48.8602 104.94 48.8602C104.45 48.8884 103.962 48.7882 103.524 48.5694C103.085 48.3507 102.712 48.021 102.44 47.6131L102.311 48.686H100.547V37.6816H102.457ZM102.58 44.7988C102.538 45.1161 102.564 45.4388 102.657 45.7453C102.749 46.0517 102.906 46.3348 103.117 46.5757C103.328 46.8165 103.588 47.0095 103.88 47.1417C104.171 47.2739 104.488 47.3423 104.808 47.3423C105.128 47.3423 105.444 47.2739 105.736 47.1417C106.027 47.0095 106.287 46.8165 106.498 46.5757C106.709 46.3348 106.866 46.0517 106.959 45.7453C107.051 45.4388 107.077 45.1161 107.035 44.7988C107.05 44.5036 107.003 44.2086 106.899 43.9322C106.794 43.6559 106.633 43.4042 106.426 43.1931C106.219 42.982 105.971 42.8161 105.697 42.7057C105.422 42.5953 105.128 42.543 104.833 42.5519C104.238 42.5534 103.668 42.7907 103.248 43.212C102.828 43.6332 102.592 44.2039 102.592 44.7988H102.58Z" fill="#FF0000"/>
<path d="M120.518 40.3271C120.212 39.9291 119.815 39.6098 119.361 39.3959C118.906 39.1819 118.407 39.0794 117.906 39.0969C116.361 39.0969 115.625 39.7429 115.625 40.563C115.625 41.5236 116.748 41.7932 118.08 41.9505C120.377 42.2314 122.517 42.8268 122.517 45.4613C122.517 47.9161 120.344 48.9666 117.889 48.9666C115.642 48.9666 113.906 48.2756 113.086 46.259L114.822 45.3658C115.305 46.5792 116.58 47.1128 117.922 47.1128C119.265 47.1128 120.439 46.6297 120.439 45.4613C120.439 44.4165 119.349 43.9952 117.889 43.8379C115.642 43.5683 113.558 42.9728 113.558 40.5012C113.558 38.2543 115.805 37.3049 117.827 37.2881C119.54 37.2881 121.321 37.7768 122.152 39.4789L120.518 40.3271Z" fill="#FF0000"/>
<path d="M126.862 38.7656V40.9676H129.002V42.6247H126.845V45.9951C126.821 46.1379 126.83 46.2842 126.87 46.4232C126.91 46.5622 126.981 46.6904 127.078 46.7982C127.174 46.9061 127.294 46.9908 127.428 47.0463C127.561 47.1018 127.706 47.1265 127.85 47.1186C128.175 47.1096 128.494 47.027 128.783 46.8771L129.316 48.5173C128.812 48.7271 128.273 48.8395 127.727 48.8488C126.042 48.9106 124.918 47.95 124.918 46.012V42.6416H123.469V40.9845H124.929V38.9847L126.862 38.7656Z" fill="#FF0000"/>
<path d="M132.405 40.9229V44.9842C132.405 46.1695 133.052 47.0626 134.276 47.0626C134.55 47.0556 134.82 46.9933 135.07 46.8795C135.32 46.7657 135.544 46.6027 135.729 46.4003C135.914 46.1978 136.056 45.9601 136.147 45.7014C136.239 45.4426 136.276 45.1681 136.259 44.8943V40.9229H138.163V48.7029H136.45L136.321 47.6468C135.993 48.0179 135.589 48.3138 135.136 48.5145C134.683 48.7151 134.193 48.8158 133.697 48.8096C131.838 48.8096 130.484 47.4109 130.484 45.0011V40.9229H132.405Z" fill="#FF0000"/>
<path d="M147.928 37.6816V48.686H146.136L146.007 47.6131C145.735 48.021 145.362 48.3507 144.923 48.5694C144.485 48.7882 143.997 48.8884 143.507 48.8602C141.227 48.8602 139.508 47.3491 139.508 44.7988C139.508 42.1193 141.193 40.7375 143.44 40.7375C144.254 40.7375 145.53 41.1756 145.985 41.9789V37.6816H147.928ZM141.429 44.7988C141.387 45.1161 141.413 45.4388 141.505 45.7453C141.598 46.0517 141.755 46.3348 141.966 46.5757C142.177 46.8165 142.437 47.0095 142.728 47.1417C143.02 47.2739 143.336 47.3423 143.656 47.3423C143.976 47.3423 144.293 47.2739 144.584 47.1417C144.876 47.0095 145.136 46.8165 145.347 46.5757C145.558 46.3348 145.715 46.0517 145.807 45.7453C145.9 45.4388 145.926 45.1161 145.883 44.7988C145.883 44.2029 145.647 43.6314 145.225 43.21C144.804 42.7886 144.232 42.5519 143.637 42.5519C143.341 42.5422 143.046 42.594 142.771 42.704C142.496 42.814 142.247 42.9798 142.04 43.191C141.832 43.4022 141.671 43.6541 141.566 43.9308C141.461 44.2076 141.414 44.5031 141.429 44.7988Z" fill="#FF0000"/>
<path d="M151.7 38.7651C151.7 39.063 151.582 39.3488 151.371 39.5595C151.16 39.7702 150.875 39.8885 150.577 39.8885C150.279 39.8885 149.993 39.7702 149.782 39.5595C149.571 39.3488 149.453 39.063 149.453 38.7651C149.453 38.4671 149.571 38.1813 149.782 37.9707C149.993 37.76 150.279 37.6416 150.577 37.6416C150.875 37.6416 151.16 37.76 151.371 37.9707C151.582 38.1813 151.7 38.4671 151.7 38.7651Z" fill="#FF0000"/>
<path d="M151.523 40.8887H149.602V48.6799H151.523V40.8887Z" fill="#FF0000"/>
<path d="M161.14 44.815C161.138 45.6124 160.9 46.3912 160.456 47.0534C160.011 47.7157 159.381 48.2316 158.644 48.5362C157.907 48.8408 157.097 48.9205 156.315 48.7652C155.533 48.6099 154.814 48.2266 154.249 47.6636C153.685 47.1005 153.299 46.3829 153.142 45.6013C152.985 44.8196 153.062 44.0088 153.365 43.2711C153.667 42.5333 154.181 41.9017 154.842 41.4557C155.503 41.0097 156.282 40.7693 157.079 40.7649C157.616 40.747 158.151 40.8394 158.651 41.0364C159.152 41.2335 159.606 41.531 159.987 41.9105C160.367 42.2901 160.666 42.7437 160.864 43.2432C161.063 43.7428 161.157 44.2777 161.14 44.815ZM154.989 44.815C154.989 45.9946 155.697 47.0956 157.096 47.0956C158.494 47.0956 159.208 45.9722 159.208 44.815C159.222 44.5247 159.179 44.2344 159.08 43.961C158.981 43.6876 158.829 43.4365 158.633 43.2222C158.436 43.008 158.199 42.8349 157.936 42.713C157.672 42.591 157.386 42.5227 157.096 42.5119C156.803 42.5148 156.514 42.5779 156.247 42.6973C155.979 42.8166 155.74 42.9897 155.542 43.2057C155.344 43.4217 155.193 43.676 155.098 43.9529C155.003 44.2297 154.966 44.5232 154.989 44.815Z" fill="#FF0000"/>
<path d="M167.541 42.9842C167.283 42.7465 166.98 42.5628 166.65 42.4442C166.32 42.3255 165.97 42.2742 165.619 42.2933C164.704 42.2933 164.198 42.5798 164.198 43.0685C164.198 43.5572 164.659 43.8549 165.648 43.9167C167.114 44.0122 168.973 44.3436 168.973 46.4052C168.973 47.7702 167.85 48.9554 165.631 48.9554C164.968 49.0008 164.304 48.9 163.684 48.6603C163.065 48.4205 162.506 48.0476 162.047 47.568L162.991 46.1973C163.728 46.8605 164.674 47.2442 165.664 47.2815C166.389 47.2815 167.063 46.922 167.063 46.3546C167.063 45.7873 166.625 45.6019 165.524 45.5345C164.058 45.4277 162.311 44.8941 162.311 43.1303C162.311 41.3664 164.17 40.7036 165.586 40.7036C166.132 40.6672 166.68 40.7387 167.199 40.9141C167.717 41.0896 168.196 41.3654 168.608 41.7259L167.541 42.9842Z" fill="#FF0000"/>
<path d="M66.0781 48.8087V1.31401H73.7065L74.2401 5.86406C76.7848 2.1847 81.2 0.578137 84.9468 0.578137C95.1142 0.566903 101.9 8.13909 101.9 17.8402C101.9 27.5414 95.8107 35.1023 85.2445 35.1023C81.7618 35.1023 76.6107 34.0294 74.2682 30.4175V48.8087H66.0781ZM93.7099 17.8402C93.7099 12.6891 90.2327 8.47613 84.3457 8.47613C78.4588 8.47613 74.976 12.6891 74.976 17.8402C75.0359 20.2848 76.049 22.6091 77.7991 24.3169C79.5492 26.0246 81.8976 26.9806 84.3429 26.9806C86.7882 26.9806 89.1366 26.0246 90.8867 24.3169C92.6368 22.6091 93.65 20.2848 93.7099 17.8402Z" fill="white"/>
<path d="M111.158 20.7167C111.692 24.8005 115.236 27.7383 120.989 27.7383C123.999 27.7383 127.948 26.6149 129.819 24.6657L135.038 29.8168C131.56 33.4287 125.876 35.1701 120.859 35.1701C109.484 35.1701 102.727 28.1428 102.727 17.5709C102.727 7.53836 109.552 0.314453 120.253 0.314453C131.291 0.314453 138.183 7.13391 136.914 20.7167H111.158ZM129.083 13.9758C128.55 9.69542 125.207 7.55521 120.522 7.55521C116.107 7.55521 112.495 9.69542 111.293 13.9758H129.083Z" fill="white"/>
<path d="M158.53 1.31445H168.299V1.58408L157.457 17.5711L168.967 34.0973V34.2995H159.193L152.042 23.2614L144.88 34.2995H135.117V34.0973L146.622 17.5711L135.78 1.58408V1.31445H145.549L152.042 12.4874L158.53 1.31445Z" fill="white"/>
<path d="M17.1998 50L14.3125 47.5789L49.7804 0L52.6677 2.42108L17.1998 50Z" fill="white"/>
<path d="M62.9775 43.0853L60.1295 47.45L26.0547 47.3601L31.9529 40.2823L53.5572 39.6868L46.1648 19.1666L50.9451 12.291L62.9775 43.0853Z" fill="white"/>
<path d="M3.19627 9.39816L1.25829 9.41501L0 6.27492L3.1738 6.24121L3.19627 9.39816Z" fill="#FF0000"/>
<path d="M8.75187 6.19593L5.39844 6.22461L5.42544 9.38144L8.77887 9.35276L8.75187 6.19593Z" fill="#FF0000"/>
<path d="M4.23023 4.12837L0.960938 4.16207L3.07868 1.01074L4.20776 1.02759L4.23023 4.12837Z" fill="#FF0000"/>
<path d="M9.79093 0.923469L6.4375 0.952148L6.4645 4.10898L9.81793 4.0803L9.79093 0.923469Z" fill="#FF0000"/>
<path d="M11.1657 6.26972L11.1328 9.46582L14.1436 9.49682L14.1765 6.30072L11.1657 6.26972Z" fill="#FF0000"/>
<path d="M16.8845 6.32636L16.8516 9.52246L19.8623 9.55346L19.8952 6.35736L16.8845 6.32636Z" fill="#FF0000"/>
<path d="M22.5876 6.38398L22.5547 9.58008L25.5654 9.61108L25.5983 6.41498L22.5876 6.38398Z" fill="#FF0000"/>
<path d="M28.3064 6.44062L28.2734 9.63672L31.2842 9.66772L31.3171 6.47162L28.3064 6.44062Z" fill="#FF0000"/>
<path d="M34.0173 6.50312L33.9844 9.69922L36.9951 9.73022L37.028 6.53412L34.0173 6.50312Z" fill="#FF0000"/>
<path d="M12.236 0.96796L12.2031 4.16406L15.2139 4.19507L15.2468 0.998964L12.236 0.96796Z" fill="#FF0000"/>
<path d="M17.947 1.02558L17.9141 4.22168L20.9248 4.25268L20.9577 1.05658L17.947 1.02558Z" fill="#FF0000"/>
<path d="M23.6579 1.07734L23.625 4.27344L26.6357 4.30444L26.6687 1.10834L23.6579 1.07734Z" fill="#FF0000"/>
<path d="M29.3689 1.13398L29.3359 4.33008L32.3467 4.36108L32.3796 1.16498L29.3689 1.13398Z" fill="#FF0000"/>
<path d="M35.0876 1.19648L35.0547 4.39258L38.0654 4.42358L38.0983 1.22748L35.0876 1.19648Z" fill="#FF0000"/>
<path d="M5.52 11.9706L2.59375 13.1553L3.70884 15.9097L6.63509 14.725L5.52 11.9706Z" fill="#FF0000"/>
<path d="M8.75543 19.9468L5.82317 21.1321L4.71094 18.3796L7.63196 17.1943L8.75543 19.9468Z" fill="#FF0000"/>
<path d="M10.8726 25.1714L7.94598 26.3567L6.82812 23.6042L9.75476 22.4189L10.8726 25.1714Z" fill="#FF0000"/>
<path d="M12.9898 30.3951L10.0632 31.586L8.94531 28.8278L11.8719 27.6426L12.9898 30.3951Z" fill="#FF0000"/>
<path d="M15.0992 35.6312L12.1782 36.8108L11.0547 34.0639L13.9869 32.873L15.0992 35.6312Z" fill="#FF0000"/>
<path d="M10.5122 11.1718L7.58594 12.3564L8.70103 15.1109L11.6273 13.9262L10.5122 11.1718Z" fill="#FF0000"/>
<path d="M12.2622 15.5058L9.33594 16.6904L10.451 19.4448L13.3773 18.2602L12.2622 15.5058Z" fill="#FF0000"/>
<path d="M14.27 20.453L11.3438 21.6377L12.4588 24.3921L15.3851 23.2075L14.27 20.453Z" fill="#FF0000"/>
<path d="M16.4184 25.7724L13.4922 26.957L14.6073 29.7114L17.5335 28.5268L16.4184 25.7724Z" fill="#FF0000"/>
<path d="M18.4653 30.8349L15.5391 32.0195L16.6542 34.774L19.5804 33.5893L18.4653 30.8349Z" fill="#FF0000"/>
</g>
<defs>
<clipPath id="clip0_3009_5720">
<rect width="168.964" height="50" fill="white"/>
</clipPath>
</defs>
</svg>
