<svg width="31" height="31" viewBox="0 0 31 31" fill="none" xmlns="http://www.w3.org/2000/svg">
<path d="M9.30751 14.2484C9.88413 12.0968 12.0958 9.8851 14.2474 9.30849L27.6616 5.71363C29.8132 5.13701 31.09 6.41381 30.5134 8.56544L26.9186 21.9796C26.342 24.1313 24.1303 26.3429 21.9787 26.9195L8.56446 30.5144C6.41283 31.091 5.13603 29.8142 5.71265 27.6626L9.30751 14.2484Z" fill="#9E77ED"/>
<path d="M3.93251 8.87047C4.50913 6.71884 6.7208 4.50717 8.87242 3.93056L22.2866 0.335693C24.4383 -0.24092 25.7151 1.03588 25.1384 3.1875L21.5436 16.6017C20.967 18.7533 18.7553 20.965 16.6037 21.5416L3.18946 25.1365C1.03783 25.7131 -0.238966 24.4363 0.337647 22.2847L3.93251 8.87047Z" fill="#6941C6"/>
</svg>
