<svg width="40" height="40" viewBox="0 0 40 40" fill="none" xmlns="http://www.w3.org/2000/svg">
<path d="M20.0026 9.99967C18.0248 9.99967 16.0914 10.5862 14.4469 11.685C12.8024 12.7838 11.5207 14.3456 10.7638 16.1728C10.0069 18.0001 9.8089 20.0108 10.1948 21.9506C10.5806 23.8904 11.533 25.6722 12.9315 27.0707C14.3301 28.4693 16.1119 29.4217 18.0517 29.8075C19.9915 30.1934 22.0022 29.9953 23.8294 29.2385C25.6567 28.4816 27.2185 27.1999 28.3173 25.5554C29.4161 23.9109 30.0026 21.9775 30.0026 19.9997C29.9997 17.3484 28.9452 14.8065 27.0705 12.9318C25.1957 11.0571 22.6539 10.0026 20.0026 9.99967ZM13.3359 19.9997C13.3377 18.2321 14.0406 16.5374 15.2905 15.2876C16.5404 14.0377 18.235 13.3348 20.0026 13.333V26.6663C18.235 26.6646 16.5404 25.9616 15.2905 24.7118C14.0406 23.4619 13.3377 21.7672 13.3359 19.9997ZM18.3359 6.66634V4.99967C18.3359 4.55765 18.5115 4.13372 18.8241 3.82116C19.1367 3.5086 19.5606 3.33301 20.0026 3.33301C20.4446 3.33301 20.8686 3.5086 21.1811 3.82116C21.4937 4.13372 21.6693 4.55765 21.6693 4.99967V6.66634C21.6693 7.10837 21.4937 7.53229 21.1811 7.84485C20.8686 8.15741 20.4446 8.33301 20.0026 8.33301C19.5606 8.33301 19.1367 8.15741 18.8241 7.84485C18.5115 7.53229 18.3359 7.10837 18.3359 6.66634ZM21.6693 33.333V34.9997C21.6693 35.4417 21.4937 35.8656 21.1811 36.1782C20.8686 36.4907 20.4446 36.6663 20.0026 36.6663C19.5606 36.6663 19.1367 36.4907 18.8241 36.1782C18.5115 35.8656 18.3359 35.4417 18.3359 34.9997V33.333C18.3359 32.891 18.5115 32.4671 18.8241 32.1545C19.1367 31.8419 19.5606 31.6663 20.0026 31.6663C20.4446 31.6663 20.8686 31.8419 21.1811 32.1545C21.4937 32.4671 21.6693 32.891 21.6693 33.333ZM28.2529 11.7493C28.0981 11.5946 27.9753 11.4109 27.8916 11.2087C27.8078 11.0065 27.7647 10.7898 27.7647 10.571C27.7647 10.3521 27.8078 10.1354 27.8916 9.93319C27.9753 9.73099 28.0981 9.54729 28.2529 9.39257L29.4313 8.21424C29.586 8.05949 29.7697 7.93674 29.9719 7.85299C30.1741 7.76924 30.3908 7.72614 30.6097 7.72614C30.8285 7.72614 31.0452 7.76924 31.2474 7.85299C31.4496 7.93674 31.6333 8.05949 31.788 8.21424C31.9428 8.36899 32.0655 8.5527 32.1493 8.75489C32.233 8.95708 32.2761 9.17378 32.2761 9.39262C32.2761 9.61147 32.233 9.82817 32.1493 10.0304C32.0655 10.2325 31.9428 10.4163 31.788 10.571L30.6097 11.7493C30.455 11.9041 30.2713 12.0269 30.0691 12.1107C29.8669 12.1945 29.6502 12.2376 29.4313 12.2376C29.2125 12.2376 28.9957 12.1945 28.7936 12.1107C28.5914 12.0269 28.4077 11.9041 28.2529 11.7493ZM11.7523 28.25C11.9071 28.4047 12.0299 28.5884 12.1137 28.7906C12.1974 28.9928 12.2406 29.2095 12.2406 29.4284C12.2406 29.6473 12.1974 29.864 12.1137 30.0662C12.0299 30.2684 11.9071 30.4521 11.7523 30.6068L10.5739 31.7851C10.4192 31.9399 10.2355 32.0626 10.0333 32.1464C9.8311 32.2301 9.6144 32.2732 9.39555 32.2732C9.17671 32.2732 8.96001 32.2301 8.75782 32.1464C8.55563 32.0626 8.37192 31.9399 8.21717 31.7851C8.06242 31.6304 7.93967 31.4466 7.85592 31.2445C7.77217 31.0423 7.72907 30.8256 7.72907 30.6067C7.72907 30.3879 7.77217 30.1712 7.85592 29.969C7.93967 29.7668 8.06242 29.5831 8.21717 29.4283L9.3955 28.25C9.55022 28.0952 9.73392 27.9724 9.93612 27.8886C10.1383 27.8048 10.355 27.7617 10.5739 27.7617C10.7928 27.7617 11.0095 27.8048 11.2117 27.8886C11.4139 27.9724 11.5976 28.0952 11.7523 28.25ZM31.7881 29.4283C32.1006 29.7409 32.2762 30.1647 32.2762 30.6067C32.2762 31.0487 32.1006 31.4726 31.7881 31.7851C31.4756 32.0976 31.0517 32.2732 30.6097 32.2732C30.1677 32.2732 29.7438 32.0976 29.4313 31.7851L28.253 30.6068C27.9405 30.2942 27.7649 29.8704 27.7649 29.4284C27.7649 28.9864 27.9405 28.5625 28.253 28.25C28.5655 27.9375 28.9894 27.7619 29.4314 27.7619C29.8734 27.7619 30.2972 27.9375 30.6098 28.25L31.7881 29.4283ZM8.21712 10.571C7.90459 10.2584 7.72902 9.83455 7.72902 9.39257C7.72902 8.95059 7.90459 8.52672 8.21712 8.21419C8.52965 7.90166 8.95352 7.72609 9.3955 7.72609C9.83748 7.72609 10.2614 7.90166 10.5739 8.21419L11.7522 9.39252C11.907 9.54727 12.0297 9.73098 12.1135 9.93316C12.1972 10.1353 12.2403 10.3521 12.2403 10.5709C12.2404 10.7897 12.1973 11.0064 12.1135 11.2086C12.0298 11.4108 11.907 11.5945 11.7523 11.7493C11.5975 11.904 11.4138 12.0268 11.2116 12.1106C11.0094 12.1943 10.7927 12.2374 10.5739 12.2374C10.3551 12.2374 10.1383 12.1943 9.93616 12.1106C9.73397 12.0268 9.55025 11.9041 9.3955 11.7493L8.21712 10.571ZM36.6693 19.9997C36.6694 20.2186 36.6264 20.4354 36.5427 20.6376C36.4589 20.8399 36.3362 21.0237 36.1814 21.1785C36.0266 21.3333 35.8428 21.456 35.6406 21.5397C35.4383 21.6234 35.2215 21.6665 35.0026 21.6663H33.3359C32.8939 21.6663 32.47 21.4907 32.1574 21.1782C31.8449 20.8656 31.6693 20.4417 31.6693 19.9997C31.6693 19.5576 31.8449 19.1337 32.1574 18.8212C32.47 18.5086 32.8939 18.333 33.3359 18.333H35.0026C35.2215 18.3329 35.4383 18.3759 35.6406 18.4596C35.8428 18.5433 36.0266 18.6661 36.1814 18.8209C36.3362 18.9757 36.4589 19.1595 36.5427 19.3617C36.6264 19.564 36.6694 19.7808 36.6693 19.9997ZM6.66927 21.6663H5.0026C4.56058 21.6663 4.13665 21.4907 3.82409 21.1782C3.51153 20.8656 3.33594 20.4417 3.33594 19.9997C3.33594 19.5576 3.51153 19.1337 3.82409 18.8212C4.13665 18.5086 4.56058 18.333 5.0026 18.333H6.66927C7.1113 18.333 7.53522 18.5086 7.84778 18.8212C8.16034 19.1337 8.33594 19.5576 8.33594 19.9997C8.33594 20.4417 8.16034 20.8656 7.84778 21.1782C7.53522 21.4907 7.1113 21.6663 6.66927 21.6663Z" fill="white"/>
</svg>
